<?xml version="1.0" encoding="UTF-8" standalone="no"?>
<!-- Created with Inkscape (http://www.inkscape.org/) -->

<svg
   xmlns:dc="http://purl.org/dc/elements/1.1/"
   xmlns:cc="http://creativecommons.org/ns#"
   xmlns:rdf="http://www.w3.org/1999/02/22-rdf-syntax-ns#"
   xmlns:svg="http://www.w3.org/2000/svg"
   xmlns="http://www.w3.org/2000/svg"
   xmlns:xlink="http://www.w3.org/1999/xlink"
   xmlns:sodipodi="http://sodipodi.sourceforge.net/DTD/sodipodi-0.dtd"
   xmlns:inkscape="http://www.inkscape.org/namespaces/inkscape"
   width="140mm"
   height="200mm"
   viewBox="0 0 496.063 708.66142"
   id="svg2"
   version="1.1"
   inkscape:version="0.91 r13725"
   sodipodi:docname="actor.svg">
  <defs
     id="defs4" />
  <sodipodi:namedview
     id="base"
     pagecolor="#ffffff"
     bordercolor="#666666"
     borderopacity="1.0"
     inkscape:pageopacity="0.0"
     inkscape:pageshadow="2"
     inkscape:zoom="0.35"
     inkscape:cx="375"
     inkscape:cy="520"
     inkscape:document-units="px"
     inkscape:current-layer="layer1"
     showgrid="false"
     inkscape:snap-global="true"
     inkscape:window-width="839"
     inkscape:window-height="687"
     inkscape:window-x="2143"
     inkscape:window-y="281"
     inkscape:window-maximized="0" />
  <metadata
     id="metadata7">
    <rdf:RDF>
      <cc:Work
         rdf:about="">
        <dc:format>image/svg+xml</dc:format>
        <dc:type
           rdf:resource="http://purl.org/dc/dcmitype/StillImage" />
        <dc:title></dc:title>
      </cc:Work>
    </rdf:RDF>
  </metadata>
  <g
     inkscape:label="Calque 1"
     inkscape:groupmode="layer"
     id="layer1"
     transform="translate(0,-343.7008)">
    <path
       style="fill:#000000;fill-opacity:1"
       d="M 250.85742,366.93359 A 125.71429,118.57143 0 0 0 125.14258,485.50586 125.71429,118.57143 0 0 0 250.85742,604.07617 125.71429,118.57143 0 0 0 376.57227,485.50586 125.71429,118.57143 0 0 0 250.85742,366.93359 Z m 5.61914,28.36329 c 7.89955,-0.015 15.79524,0.21158 23.5293,1.8164 36.63086,11.72722 71.86542,46.26509 68.57617,87.24414 3.92537,32.11841 -14.40919,61.99377 -40.29492,79.5586 -32.04252,19.87378 -76.46187,23.0786 -108.98828,2.42187 -40.78965,-20.70959 -58.28741,-73.75043 -39.80078,-115.11133 14.62782,-31.11458 47.44319,-56.77591 82.79101,-55.88867 4.70637,0.0634 9.44778,-0.032 14.1875,-0.041 z"
       id="path3344"
       inkscape:connector-curvature="0" />
    <rect
       style="fill:#2b2200;fill-opacity:1"
       id="rect4184"
       width="22.857143"
       height="262.85715"
       x="238.57144"
       y="582.36224" />
    <use
       x="0"
       y="0"
       xlink:href="#rect4184"
       id="use4195"
       transform="matrix(0.70710678,-0.70710678,0.70710678,0.70710678,-345.50277,599.84177)"
       width="100%"
       height="100%" />
    <use
       x="0"
       y="0"
       xlink:href="#use4195"
       id="use4206"
       transform="matrix(0,1,-1,0,1095.7908,591.79078)"
       width="100%"
       height="100%" />
    <use
       x="0"
       y="0"
       xlink:href="#rect4184"
       id="use4217"
       transform="matrix(0,0.64,-1.32,0,1192.2038,533.79077)"
       width="100%"
       height="100%" />
  </g>
</svg>
